<svg xmlns="http://www.w3.org/2000/svg" viewBox="0 0 850 350" width="850" height="350">
	<style>
		tspan { white-space:pre }
	</style>
	<g id="Folder 2 copy 3">
		<path id=".____  " fill="#FFFFFF" class=".... " d="M173.49 107.12Q173.49 105.9 173.86 104.84Q174.27 103.78 175 103.01Q175.73 102.2 176.83 101.75Q177.93 101.3 179.39 101.3Q180.86 101.3 181.96 101.75Q183.1 102.2 183.83 103.01Q184.6 103.78 184.97 104.84Q185.37 105.9 185.37 107.12Q185.37 108.3 184.97 109.36Q184.6 110.37 183.83 111.15Q183.1 111.92 181.96 112.37Q180.86 112.77 179.39 112.77Q177.93 112.77 176.83 112.37Q175.73 111.92 175 111.15Q174.27 110.37 173.86 109.36Q173.49 108.3 173.49 107.12ZM246.93 112L246.93 118.14L209.62 118.14L209.62 112L246.93 112ZM296.93 112L296.93 118.14L259.62 118.14L259.62 112L296.93 112ZM346.93 112L346.93 118.14L309.63 118.14L309.63 112L346.93 112ZM396.93 112L396.93 118.14L359.63 118.14L359.63 112L396.93 112ZM573.5 107.12Q573.5 105.9 573.87 104.84Q574.28 103.78 575.01 103.01Q575.74 102.2 576.84 101.75Q577.94 101.3 579.4 101.3Q580.87 101.3 581.97 101.75Q583.11 102.2 583.84 103.01Q584.61 103.78 584.98 104.84Q585.38 105.9 585.38 107.12Q585.38 108.3 584.98 109.36Q584.61 110.37 583.84 111.15Q583.11 111.92 581.97 112.37Q580.87 112.77 579.4 112.77Q577.94 112.77 576.84 112.37Q575.74 111.92 575.01 111.15Q574.28 110.37 573.87 109.36Q573.5 108.3 573.5 107.12ZM623.51 107.12Q623.51 105.9 623.87 104.84Q624.28 103.78 625.01 103.01Q625.74 102.2 626.84 101.75Q627.94 101.3 629.41 101.3Q630.87 101.3 631.97 101.75Q633.11 102.2 633.84 103.01Q634.61 103.78 634.98 104.84Q635.39 105.9 635.39 107.12Q635.39 108.3 634.98 109.36Q634.61 110.37 633.84 111.15Q633.11 111.92 631.97 112.37Q630.87 112.77 629.41 112.77Q627.94 112.77 626.84 112.37Q625.74 111.92 625.01 111.15Q624.28 110.37 623.87 109.36Q623.51 108.3 623.51 107.12ZM673.51 107.12Q673.51 105.9 673.87 104.84Q674.28 103.78 675.01 103.01Q675.75 102.2 676.84 101.75Q677.94 101.3 679.41 101.3Q680.87 101.3 681.97 101.75Q683.11 102.2 683.84 103.01Q684.61 103.78 684.98 104.84Q685.39 105.9 685.39 107.12Q685.39 108.3 684.98 109.36Q684.61 110.37 683.84 111.15Q683.11 111.92 681.97 112.37Q680.87 112.77 679.41 112.77Q677.94 112.77 676.84 112.37Q675.75 111.92 675.01 111.15Q674.28 110.37 673.87 109.36Q673.51 108.3 673.51 107.12ZM723.51 107.12Q723.51 105.9 723.87 104.84Q724.28 103.78 725.01 103.01Q725.75 102.2 726.84 101.75Q727.94 101.3 729.41 101.3Q730.87 101.3 731.97 101.75Q733.11 102.2 733.84 103.01Q734.62 103.78 734.98 104.84Q735.39 105.9 735.39 107.12Q735.39 108.3 734.98 109.36Q734.62 110.37 733.84 111.15Q733.11 111.92 731.97 112.37Q730.87 112.77 729.41 112.77Q727.94 112.77 726.84 112.37Q725.75 111.92 725.01 111.15Q724.28 110.37 723.87 109.36Q723.51 108.3 723.51 107.12ZM773.51 107.12Q773.51 105.9 773.88 104.84Q774.28 103.78 775.02 103.01Q775.75 102.2 776.85 101.75Q777.94 101.3 779.41 101.3Q780.87 101.3 781.97 101.75Q783.11 102.2 783.84 103.01Q784.62 103.78 784.98 104.84Q785.39 105.9 785.39 107.12Q785.39 108.3 784.98 109.36Q784.62 110.37 783.84 111.15Q783.11 111.92 781.97 112.37Q780.87 112.77 779.41 112.77Q777.94 112.77 776.85 112.37Q775.75 111.92 775.02 111.15Q774.28 110.37 773.88 109.36Q773.51 108.3 773.51 107.12Z" />
		<path id="[          ] " fill="#FFFFFF" d="M70.52 27.77L70.52 50.44L47.4 50.44L47.4 299.87L70.52 299.87L70.52 322.54L21 322.54L21 27.77L70.52 27.77ZM781.2 50.44L781.2 27.77L830.88 27.77L830.88 322.54L781.2 322.54L781.2 299.87L804.62 299.87L804.62 50.44L781.2 50.44Z" />
		<path id="mynLop " fill="#FFFFFF" d="M78.85 144.75L247.78 144.75L231.91 303.52L189.6 303.42L202.3 176.38L181.03 176.38L172.47 261L130.47 261.11L138.93 176.38L117.57 176.38L109.21 261L67.32 260.89L78.85 144.75ZM322.36 144.85L364.67 144.75L348.8 303.21L243.34 303.21L246.41 271.9L309.66 271.79L310.83 261.21L247.57 261.11L259.21 144.75L301.41 144.75L292.95 229.27L313.89 229.27L322.36 144.85ZM376.09 144.75L481.56 144.75L469.92 261L427.71 261.11L436.18 176.38L414.81 176.38L406.45 261L364.56 260.89L376.09 144.75ZM523.34 260.89L481.24 261.11L494.88 123.49L483.99 123.38L487.06 92.07L540.37 92.07L523.34 260.89ZM546.61 144.75L652.07 144.75L640.33 261L535.08 260.89L546.61 144.75ZM601.51 229.27L606.69 176.38L585.64 176.38L580.35 229.16L601.51 229.27ZM663.39 144.75L768.85 144.75L757.22 261.11L704.43 261.11L707.71 229.27L718.18 229.27L723.47 176.38L702.42 176.38L689.84 303.31L647.63 303.21L663.39 144.75Z" />
	</g>
</svg>